<svg width="72" height="70" xmlns="http://www.w3.org/2000/svg">

 <g>
  <title>background</title>
  <rect fill="none" id="canvas_background" height="72" width="74" y="-1" x="-1"/>
 </g>
 <g>
  <title>Layer 1</title>
  <path id="svg_2" fill="#568FCC" d="m37.319,60.394002c-1.258,0 -2.521,-0.094 -3.753,-0.279c-0.773,-0.115 -1.307,-0.838 -1.19,-1.611s0.841,-1.311 1.612,-1.191c1.093,0.164 2.214,0.248 3.331,0.248c12.261,0 22.235,-9.975 22.235,-22.235c0,-12.26 -9.975,-22.234 -22.235,-22.234c-10.531,0 -19.695,7.479 -21.79,17.781c-0.155,0.768 -0.902,1.262 -1.671,1.107c-0.767,-0.156 -1.263,-0.904 -1.106,-1.672c2.361,-11.618 12.693,-20.051 24.567,-20.051c13.823,0 25.069,11.246 25.069,25.068c0.001,13.823 -11.246,25.069 -25.069,25.069z"/>
  <path id="svg_3" fill="#568FCC" d="m12.646,34.787002c0,0 -3.656,-1.06 -3.656,1.636c0,2.693 0,15.295 0,15.295s-0.674,2.598 2.598,3.369c3.271,0.77 7.697,2.404 7.697,2.404s3.464,0.387 5.58,-0.479c2.116,-0.867 7.505,-2.215 7.505,-2.215s2.213,-0.383 2.213,-3.656c0,-3.271 0,-14.24 0,-14.24s-0.771,-3.366 -4.233,-1.922c-3.464,1.444 -5.869,2.118 -5.869,2.118s-4.33,0.48 -6.157,-0.385c-1.83,-0.867 -5.678,-1.925 -5.678,-1.925z"/>
  <path id="svg_4" fill="#568FCC" d="m35.105,30.083002m-3.5,0a3.5,3.5 0 1 1 7,0a3.5,3.5 0 1 1 -7,0"/>
  <path id="svg_5" fill="#568FCC" d="m48.521,30.083002m-3.5,0a3.5,3.5 0 1 1 7,0a3.5,3.5 0 1 1 -7,0"/>
  <path id="svg_6" fill="#FFFFFF" d="m21.418,55.334002c-0.783,0 -1.418,-0.635 -1.418,-1.418l0,-12.5c0,-0.783 0.635,-1.416 1.418,-1.416s1.418,0.633 1.418,1.416l0,12.5c0,0.783 -0.635,1.418 -1.418,1.418z"/>
 </g>
</svg>